<svg width="60" height="70" viewBox="0 0 60 70" fill="none" xmlns="http://www.w3.org/2000/svg">
<path d="M9.01853 44.1733C9.01853 46.9791 7.06363 49.2761 4.67532 49.2761C2.28701 49.2761 0.329834 46.9814 0.329834 44.1733V27.4734C0.329834 24.6677 2.28473 22.3706 4.67532 22.3706C7.06591 22.3706 9.01853 24.6677 9.01853 27.4734V44.1733ZM59.6703 44.1733C59.6703 46.9791 57.7154 49.2761 55.3248 49.2761C52.9342 49.2761 50.9793 46.9814 50.9793 44.1733V27.4734C50.9793 24.6677 52.9342 22.3706 55.3248 22.3706C57.7154 22.3706 59.6703 24.6677 59.6703 27.4734V44.1733ZM39.4985 6.22958L42.286 1.22714C42.5141 0.81882 42.4457 0.342071 42.1378 0.170989C41.8298 -9.31993e-05 41.3873 0.191519 41.1615 0.599835L38.3101 5.71861C35.6313 4.67684 32.7807 4.14757 29.9065 4.15834C26.8727 4.15834 24.003 4.72862 21.4437 5.74371L18.5786 0.602116C18.3505 0.1938 17.9102 -9.30801e-05 17.6023 0.17327C17.2943 0.346633 17.2259 0.821101 17.454 1.22942L20.2552 6.25695C14.427 8.99427 10.5012 14.1336 10.5012 20.0234C10.5012 20.621 10.5446 21.2118 10.6221 21.7935H49.1932C49.273 21.2118 49.3141 20.6233 49.3141 20.0234C49.3141 14.1153 45.3632 8.96233 39.5031 6.23186L39.4985 6.22958ZM21.0969 14.9616C20.8741 14.9616 20.6534 14.9177 20.4475 14.8324C20.2416 14.7471 20.0545 14.6221 19.8969 14.4645C19.7393 14.3069 19.6143 14.1198 19.529 13.9139C19.4437 13.708 19.3998 13.4873 19.3998 13.2645C19.3998 13.0416 19.4437 12.8209 19.529 12.615C19.6143 12.4091 19.7393 12.222 19.8969 12.0644C20.0545 11.9068 20.2416 11.7818 20.4475 11.6965C20.6534 11.6112 20.8741 11.5673 21.0969 11.5673C21.547 11.5673 21.9787 11.7461 22.297 12.0644C22.6153 12.3827 22.7941 12.8144 22.7941 13.2645C22.7941 13.7146 22.6153 14.1463 22.297 14.4645C21.9787 14.7828 21.547 14.9616 21.0969 14.9616ZM38.8074 14.9616C38.5845 14.9616 38.3638 14.9177 38.1579 14.8324C37.952 14.7471 37.7649 14.6221 37.6073 14.4645C37.4497 14.3069 37.3247 14.1198 37.2394 13.9139C37.1541 13.708 37.1102 13.4873 37.1102 13.2645C37.1102 13.0416 37.1541 12.8209 37.2394 12.615C37.3247 12.4091 37.4497 12.222 37.6073 12.0644C37.7649 11.9068 37.952 11.7818 38.1579 11.6965C38.3638 11.6112 38.5845 11.5673 38.8074 11.5673C39.2575 11.5673 39.6891 11.7461 40.0074 12.0644C40.3257 12.3827 40.5045 12.8144 40.5045 13.2645C40.5045 13.7146 40.3257 14.1463 40.0074 14.4645C39.6891 14.7828 39.2575 14.9616 38.8074 14.9616ZM10.4967 23.4792V51.9268H10.5126C10.7111 54.3288 12.9215 56.238 15.5995 56.238H44.2067C46.8824 56.238 49.0928 54.3288 49.2936 51.9268H49.3095V23.4792H10.499H10.4967ZM27.1259 56.0966V64.8971C27.1259 67.7028 25.171 69.9999 22.7804 69.9999C20.3898 69.9999 18.4372 67.7028 18.4372 64.8971V56.1035L27.1259 56.0966ZM41.6063 56.092V64.8971C41.6063 67.7028 39.6514 69.9999 37.2608 69.9999C34.8702 69.9999 32.9153 67.7028 32.9153 64.8971V56.092H41.6063Z" fill="black"/>
</svg>
