<svg width="56" height="69" viewBox="0 0 56 69" fill="none" xmlns="http://www.w3.org/2000/svg">
<path d="M46.7695 36.5877C46.8661 47.0097 55.8999 50.4779 56 50.5222C55.9236 50.7668 54.5566 55.4647 51.2406 60.3173C48.3741 64.5126 45.399 68.6925 40.7124 68.7791C36.1073 68.8641 34.6265 66.0446 29.3617 66.0446C24.0984 66.0446 22.4531 68.6925 18.0939 68.8641C13.5702 69.0355 10.1254 64.3274 7.23503 60.1474C1.32897 51.5972 -3.18448 35.9865 2.87594 25.4491C5.88663 20.2161 11.267 16.9024 17.1068 16.8174C21.549 16.7326 25.742 19.81 28.4576 19.81C31.1714 19.81 36.2667 16.1091 41.6232 16.6526C43.8656 16.7461 50.1601 17.5597 54.202 23.484C53.8763 23.6861 46.6914 27.8746 46.7695 36.5877V36.5877ZM38.1148 10.9959C40.5165 8.08479 42.133 4.03225 41.692 0C38.2301 0.139325 34.044 2.31003 31.5608 5.21954C29.3355 7.79605 27.3866 11.9199 27.9124 15.8724C31.7711 16.1713 35.713 13.9089 38.1148 10.9959" fill="black"/>
</svg>
